<svg xmlns="http://www.w3.org/2000/svg" version="1.1" xmlns:xlink="http://www.w3.org/1999/xlink" xmlns:svgjs="http://svgjs.dev/svgjs" width="1500" height="265" viewBox="0 0 1500 265"><g transform="matrix(1,0,0,1,-0.9090909090909918,0.49011435353813226)"><svg viewBox="0 0 396 70" data-background-color="#ffffff" preserveAspectRatio="xMidYMid meet" height="265" width="1500" xmlns="http://www.w3.org/2000/svg" xmlns:xlink="http://www.w3.org/1999/xlink"><g id="tight-bounds" transform="matrix(1,0,0,1,0.2400000000000091,-0.1294641688591298)"><svg viewBox="0 0 395.52 70.25892833771825" height="70.25892833771825" width="395.52"><g><svg viewBox="0 0 499.38204483053494 88.70865519036144" height="70.25892833771825" width="395.52"><g transform="matrix(1,0,0,1,0,12.260023980722892)"><svg viewBox="0 0 395.52 64.18860722891566" height="64.18860722891566" width="395.52"><g id="textblocktransform"><svg viewBox="0 0 395.52 64.18860722891566" height="64.18860722891566" width="395.52" id="textblock"><g><svg viewBox="0 0 395.52 64.18860722891566" height="64.18860722891566" width="395.52"><g transform="matrix(1,0,0,1,0,0)"><svg width="395.52" viewBox="3.91 -32.64 202.61 32.88" height="64.18860722891566" data-palette-color="#000000"><path d="M5.66 0.07Q4.74 0.07 4.32-0.16 3.91-0.39 3.91-0.88L3.91-0.88 3.91-29.52Q3.91-30.49 5.66-30.49L5.66-30.49 7.2-30.49Q8.64-30.49 9.03-29.69L9.03-29.69 17.24-15.45 18.36-12.72 19.48-15.21 27.71-29.69Q28.13-30.49 29.52-30.49L29.52-30.49 30.96-30.49Q32.69-30.49 32.69-29.52L32.69-29.52 32.69-0.88Q32.69 0.07 30.96 0.07L30.96 0.07 30.66 0.07Q29.74 0.07 29.32-0.16 28.91-0.39 28.91-0.88L28.91-0.88 28.91-24.24 28.83-24.05 20.19-9.03Q20.02-8.74 19.8-8.61 19.58-8.47 19.24-8.47L19.24-8.47 17.5-8.47Q16.85-8.47 16.53-9.03L16.53-9.03 7.69-24.49 7.69-0.88Q7.69 0.07 5.96 0.07L5.96 0.07 5.66 0.07ZM46.12 0.24Q42.8 0.24 40.74-1.39 38.69-3.03 38.69-6.25L38.69-6.25Q38.69-9.64 40.77-11.36 42.84-13.09 45.83-13.59 48.83-14.09 53.1-14.16L53.1-14.16 53.1-16.21Q53.1-17.85 51.99-18.84 50.88-19.82 48.34-19.82L48.34-19.82Q46.41-19.82 44.96-19.37 43.5-18.92 42.23-18.29L42.23-18.29Q41.7-18.02 41.57-18.02L41.57-18.02Q41.28-18.02 40.93-18.44 40.57-18.87 40.32-19.41 40.06-19.95 40.06-20.19L40.06-20.19Q40.06-20.75 41.22-21.41 42.38-22.07 44.26-22.51 46.14-22.95 48.19-22.95L48.19-22.95Q52.27-22.95 54.51-21.17 56.76-19.38 56.76-16.16L56.76-16.16 56.76-6.42Q56.76-3.59 57.02-2.33 57.27-1.07 57.27-0.95L57.27-0.95Q57.27-0.42 56.46-0.18 55.64 0.05 54.93 0.05L54.93 0.05Q54.34 0.05 54.06-0.61 53.78-1.27 53.51-2.51L53.51-2.51 53.42-3Q52.07-1.51 50.25-0.63 48.44 0.24 46.12 0.24L46.12 0.24ZM46.31-2.91Q48.46-2.91 49.97-3.69 51.49-4.47 53.1-5.91L53.1-5.91 53.1-11.04Q49.88-11.01 47.8-10.77 45.73-10.52 44.16-9.53 42.6-8.54 42.6-6.47L42.6-6.47Q42.6-4.74 43.54-3.82 44.48-2.91 46.31-2.91L46.31-2.91ZM65.89 0.07Q64.96 0.07 64.55-0.16 64.13-0.39 64.13-0.88L64.13-0.88 64.13-16.11Q64.13-18.95 63.86-20.2 63.59-21.46 63.59-21.58L63.59-21.58Q63.59-22.12 64.41-22.35 65.23-22.58 65.96-22.58L65.96-22.58Q66.55-22.58 66.84-21.96 67.13-21.34 67.35-20.21L67.35-20.21 67.48-19.7Q69.79-22.95 72.5-22.95L72.5-22.95Q73.75-22.95 74.38-22.5 75.02-22.05 75.02-21.29L75.02-21.29Q75.02-20.56 74.76-19.74 74.51-18.92 74.16-18.92L74.16-18.92Q73.99-18.92 73.55-19.07L73.55-19.07Q73.16-19.24 72.77-19.32 72.38-19.41 71.77-19.41L71.77-19.41Q70.77-19.41 69.88-18.82 68.99-18.24 68.38-17.53 67.77-16.82 67.77-16.75L67.77-16.75 67.77-0.88Q67.77-0.39 67.35-0.16 66.94 0.07 66.06 0.07L66.06 0.07 65.89 0.07ZM89.03 0.24Q83.64 0.24 80.99-2.53 78.34-5.3 78.34-11.45L78.34-11.45Q78.34-17.68 81.29-20.31 84.25-22.95 88.64-22.95L88.64-22.95Q90.28-22.95 91.79-22.67 93.3-22.39 94.23-21.92 95.16-21.46 95.16-20.95L95.16-20.95Q95.16-20.61 94.93-20.04 94.69-19.48 94.37-19.06 94.04-18.63 93.77-18.63L93.77-18.63Q93.69-18.63 93.55-18.69 93.4-18.75 93.28-18.8L93.28-18.8Q91.08-19.82 88.54-19.82L88.54-19.82Q85.54-19.82 83.9-17.86 82.27-15.89 82.27-11.55L82.27-11.55Q82.27-8.47 82.93-6.58 83.59-4.69 85.06-3.78 86.54-2.88 89.01-2.88L89.01-2.88Q91.72-2.88 93.89-4L93.89-4Q94.11-4.05 94.22-4.11 94.33-4.17 94.38-4.17L94.38-4.17Q94.65-4.17 94.99-3.76 95.33-3.34 95.59-2.81 95.84-2.27 95.84-1.95L95.84-1.95Q95.84-1.44 94.91-0.93 93.99-0.42 92.41-0.09 90.84 0.24 89.03 0.24L89.03 0.24ZM109.58 0.24Q104.68 0.24 102.1-2.7 99.53-5.64 99.53-11.25L99.53-11.25Q99.53-16.87 102.14-19.91 104.75-22.95 109.58-22.95L109.58-22.95Q114.37-22.95 116.91-19.93 119.45-16.92 119.45-11.25L119.45-11.25Q119.45-5.62 116.95-2.69 114.44 0.24 109.58 0.24L109.58 0.24ZM109.46-2.88Q112.64-2.88 114.15-4.94 115.66-7.01 115.66-11.33L115.66-11.33Q115.66-15.67 114.15-17.75 112.64-19.82 109.46-19.82L109.46-19.82Q106.31-19.82 104.82-17.76 103.33-15.7 103.33-11.33L103.33-11.33Q103.33-6.98 104.81-4.93 106.29-2.88 109.46-2.88L109.46-2.88ZM127.26 0.07Q126.35 0.07 125.95-0.16 125.55-0.39 125.55-0.88L125.55-0.88 125.55-29.08Q125.55-29.79 125.85-30.08 126.16-30.37 126.84-30.37L126.84-30.37 135.63-30.37Q139.44-30.37 142.38-28.55 145.32-26.73 145.32-21.88L145.32-21.88Q145.32-18.26 143.64-16.27 141.96-14.28 139.86-13.61 137.76-12.94 136.07-12.94L136.07-12.94 129.33-12.94 129.33-0.88Q129.33-0.39 128.92-0.16 128.5 0.07 127.62 0.07L127.62 0.07 127.26 0.07ZM129.33-16.24L136.12-16.24Q137.22-16.24 138.42-16.71 139.61-17.19 140.49-18.44 141.37-19.7 141.37-21.88L141.37-21.88Q141.37-24.78 139.65-25.93 137.93-27.08 135.51-27.08L135.51-27.08 129.33-27.08 129.33-16.24ZM159.04 0.24Q154.14 0.24 151.56-2.7 148.98-5.64 148.98-11.25L148.98-11.25Q148.98-16.87 151.6-19.91 154.21-22.95 159.04-22.95L159.04-22.95Q163.83-22.95 166.37-19.93 168.91-16.92 168.91-11.25L168.91-11.25Q168.91-5.62 166.4-2.69 163.9 0.24 159.04 0.24L159.04 0.24ZM158.92-2.88Q162.09-2.88 163.61-4.94 165.12-7.01 165.12-11.33L165.12-11.33Q165.12-15.67 163.61-17.75 162.09-19.82 158.92-19.82L158.92-19.82Q155.77-19.82 154.28-17.76 152.79-15.7 152.79-11.33L152.79-11.33Q152.79-6.98 154.27-4.93 155.75-2.88 158.92-2.88L158.92-2.88ZM180.45 0.24Q178.28 0.24 176.57-1.07 174.86-2.39 174.86-5.74L174.86-5.74 174.86-31.69Q174.86-32.64 176.59-32.64L176.59-32.64 176.79-32.64Q178.5-32.64 178.5-31.69L178.5-31.69 178.5-6.08Q178.5-4.3 179.13-3.59 179.77-2.88 180.84-2.88L180.84-2.88Q181.65-2.88 182.11-2.98 182.58-3.08 182.72-3.08L182.72-3.08Q183.11-3.08 183.37-2.29 183.63-1.51 183.63-1.05L183.63-1.05Q183.63 0.24 180.45 0.24L180.45 0.24ZM196.66 0.24Q191.75 0.24 189.18-2.7 186.6-5.64 186.6-11.25L186.6-11.25Q186.6-16.87 189.21-19.91 191.83-22.95 196.66-22.95L196.66-22.95Q201.44-22.95 203.98-19.93 206.52-16.92 206.52-11.25L206.52-11.25Q206.52-5.62 204.02-2.69 201.52 0.24 196.66 0.24L196.66 0.24ZM196.54-2.88Q199.71-2.88 201.23-4.94 202.74-7.01 202.74-11.33L202.74-11.33Q202.74-15.67 201.23-17.75 199.71-19.82 196.54-19.82L196.54-19.82Q193.39-19.82 191.9-17.76 190.41-15.7 190.41-11.33L190.41-11.33Q190.41-6.98 191.89-4.93 193.36-2.88 196.54-2.88L196.54-2.88Z" opacity="1" transform="matrix(1,0,0,1,0,0)" fill="#000000" class="wordmark-text-0" data-fill-palette-color="primary" id="text-0"></path></svg></g></svg></g></svg></g></svg></g><g transform="matrix(1,0,0,1,410.67338964017347,0)"><svg viewBox="0 0 88.70865519036144 88.70865519036144" height="88.70865519036144" width="88.70865519036144"><g data-palette-color="#000000"><rect width="24.247032418698794" height="88.70865519036144" fill="#000000" stroke="transparent" data-fill-palette-color="accent" x="0" fill-opacity="1"></rect><rect width="24.247032418698794" height="88.70865519036144" fill="#000000" stroke="transparent" data-fill-palette-color="accent" x="29.56955173012048" fill-opacity="0.75"></rect><rect width="24.247032418698794" height="88.70865519036144" fill="#000000" stroke="transparent" data-fill-palette-color="accent" x="59.13910346024096" fill-opacity="0.5"></rect></g></svg></g></svg></g><defs></defs></svg><rect width="395.52" height="70.25892833771825" fill="none" stroke="none" visibility="hidden"></rect></g></svg></g></svg>